<svg id="Layer_1" data-name="Layer 1" xmlns="http://www.w3.org/2000/svg" viewBox="0 0 92 92"><defs><style>.cls-1{fill:#f7ad40;}.cls-2{fill:#2b8fce;}.cls-3{fill:#2a285e;}</style></defs><circle class="cls-1" cx="45.89" cy="46.32" r="19.34"/><path class="cls-2" d="M61.32,65.68A13.33,13.33,0,0,1,48,52.38a.17.17,0,0,1,0-.07c0-16.19,12.85-25.15,13-25.24a.58.58,0,0,1,.91.48V39.11a13.29,13.29,0,0,1-.58,26.57ZM49.16,52.46A12.16,12.16,0,1,0,61.32,40.25a.58.58,0,0,1-.58-.58V28.73c-2.87,2.35-11.57,10.55-11.57,23.65C49.17,52.41,49.16,52.43,49.16,52.46Z"/><path class="cls-3" d="M30.45,65.68a13.33,13.33,0,0,1-13.32-13.3s0,0,0-.06c0-16.2,12.86-25.16,13-25.25a.57.57,0,0,1,.59,0,.58.58,0,0,1,.31.51V39.11a13.29,13.29,0,0,1-.58,26.57ZM18.29,52.45a12.16,12.16,0,1,0,12.16-12.2.58.58,0,0,1-.58-.58V28.73C27,31.08,18.3,39.28,18.3,52.38A.15.15,0,0,1,18.29,52.45Z"/></svg>