<svg viewBox="0 0 92 92" xmlns="http://www.w3.org/2000/svg"><path d="m61.32 65.68a13.33 13.33 0 0 1 -13.32-13.3.17.17 0 0 1 0-.07c0-16.19 12.85-25.15 13-25.24a.58.58 0 0 1 .91.48v11.56a13.29 13.29 0 0 1 -.58 26.57zm-12.16-13.22a12.16 12.16 0 1 0 12.16-12.21.58.58 0 0 1 -.58-.58v-10.94c-2.87 2.35-11.57 10.55-11.57 23.65 0 .03-.01.05-.01.08z" fill="#2b8fce"/><path d="m30.45 65.68a13.33 13.33 0 0 1 -13.32-13.3s0 0 0-.06c0-16.2 12.86-25.16 13-25.25a.57.57 0 0 1 .59 0 .58.58 0 0 1 .31.51v11.53a13.29 13.29 0 0 1 -.58 26.57zm-12.16-13.23a12.16 12.16 0 1 0 12.16-12.2.58.58 0 0 1 -.58-.58v-10.94c-2.87 2.35-11.57 10.55-11.57 23.65a.15.15 0 0 1 -.01.07z" fill="#2a285e"/></svg>
