<svg id="Layer_1" data-name="Layer 1" xmlns="http://www.w3.org/2000/svg" viewBox="0 0 92 92.1"><defs><style>.cls-1{fill:#fff;}.cls-2{fill:#2b8fce;}.cls-3{fill:#2a285e;}</style></defs><circle class="cls-1" cx="45.25" cy="42.68" r="19.34"/><rect class="cls-2" x="35.71" y="62.12" width="19.08" height="1.16"/><path class="cls-2" d="M67,54H23.5a11,11,0,0,1-11-11V38.56a11,11,0,0,1,11-11h1.76v1.16H23.5a9.89,9.89,0,0,0-9.87,9.88V43a9.88,9.88,0,0,0,9.87,9.87H67A9.88,9.88,0,0,0,76.87,43V38.56A9.89,9.89,0,0,0,67,28.68H29.13V27.52H67a11,11,0,0,1,11,11V43A11,11,0,0,1,67,54Z"/><rect class="cls-3" x="24.83" y="24.25" width="1.16" height="28.74"/><rect class="cls-3" x="33.18" y="24.25" width="1.16" height="28.74"/><rect class="cls-3" x="29.13" y="33.83" width="4.1" height="1.16"/><rect class="cls-3" x="29.13" y="40.14" width="4.1" height="1.16"/><rect class="cls-3" x="29.13" y="46.46" width="4.1" height="1.16"/><path class="cls-2" d="M19.33,65.92H15.6a.58.58,0,0,1-.58-.58V58.21a.58.58,0,0,1,.58-.58H74.9a.58.58,0,0,1,.58.58V65a.58.58,0,0,1-.58.58H71.06V64.39h3.26v-5.6H16.18v6h3.15Z"/><rect class="cls-2" x="11.23" y="61.19" width="4.06" height="1.16"/><rect class="cls-2" x="10.42" y="58.31" width="1.16" height="6.93"/><rect class="cls-2" x="75.2" y="61.19" width="4.06" height="1.16"/><rect class="cls-2" x="78.92" y="58.31" width="1.16" height="6.93"/><path class="cls-3" d="M35.11,70.61a4.25,4.25,0,0,1-4.25-4.21h0a4.26,4.26,0,0,1,4.21-4.28h0a4.25,4.25,0,0,1,0,8.49Zm0-7.33h0A3.09,3.09,0,0,0,32,66.39h0a3.09,3.09,0,0,0,3.09,3.06h0a3.09,3.09,0,0,0,0-6.17Z"/><path class="cls-3" d="M23,70.61a4.21,4.21,0,0,1-3-1.22,4.26,4.26,0,0,1-1.26-3h0A4.23,4.23,0,0,1,23,62.12h0a4.25,4.25,0,0,1,4.24,4.21,4.25,4.25,0,0,1-4.21,4.28Zm0-7.33h0a3.07,3.07,0,0,0-3,3.11h0A3.09,3.09,0,0,0,23,69.45a3.09,3.09,0,0,0,0-6.17Z"/><rect class="cls-3" x="22.97" y="62.12" width="12.18" height="1.16"/><path class="cls-3" d="M67.48,70.61a4.24,4.24,0,0,1-4.24-4.21h0a4.24,4.24,0,0,1,4.2-4.28h0a4.25,4.25,0,0,1,0,8.49Zm0-7.33h0a3.08,3.08,0,0,0-3,3.11h0a3.08,3.08,0,0,0,3.08,3.06h0a3.09,3.09,0,0,0,0-6.17Z"/><path class="cls-3" d="M55.39,70.61a4.17,4.17,0,0,1-3-1.22,4.23,4.23,0,0,1-1.27-3h0a4.25,4.25,0,0,1,4.21-4.28h0a4.25,4.25,0,0,1,4.24,4.21,4.25,4.25,0,0,1-4.21,4.28Zm0-7.33h0a3.07,3.07,0,0,0-3,3.11h0a3.09,3.09,0,0,0,3.1,3.06,3.07,3.07,0,0,0,3.06-3.11A3.08,3.08,0,0,0,55.39,63.28Z"/><rect class="cls-3" x="55.35" y="62.12" width="12.18" height="1.16"/></svg>