<svg id="Layer_1" data-name="Layer 1" xmlns="http://www.w3.org/2000/svg" viewBox="0 0 92 92"><defs><style>.cls-1{fill:#f7ad40;}.cls-2{fill:#2a285e;}.cls-3{fill:#2b8fce;}.cls-4{fill:#007fba;}.cls-5{fill:#0f4876;}</style></defs><circle class="cls-1" cx="48.54" cy="43.83" r="19.34"/><path class="cls-2" d="M33.31,31.3c-2.85,0-4.92-2.53-4.92-6a4.93,4.93,0,1,1,9.85,0C38.24,28.77,36.17,31.3,33.31,31.3Zm0-9.79a3.77,3.77,0,0,0-3.76,3.77c0,2.81,1.58,4.86,3.76,4.86s3.77-2.05,3.77-4.86A3.77,3.77,0,0,0,33.31,21.51Z"/><rect class="cls-2" x="32.73" y="51.38" width="1.16" height="21.75"/><path class="cls-3" d="M63.76,31.3c-2.86,0-4.93-2.53-4.93-6a4.93,4.93,0,1,1,9.86,0C68.69,28.71,66.57,31.3,63.76,31.3Zm0-9.79A3.77,3.77,0,0,0,60,25.28c0,2.81,1.59,4.86,3.77,4.86s3.77-2.05,3.77-4.86A3.77,3.77,0,0,0,63.76,21.51Z"/><path class="cls-4" d="M63.76,73.7a.58.58,0,0,1-.58-.58V51.38a.58.58,0,1,1,1.16,0V73.12A.58.58,0,0,1,63.76,73.7Z"/><path class="cls-5" d="M59.82,44.18,59,43.35l2.85-2.85L59,37.65l.82-.82,3.26,3.26a.57.57,0,0,1,0,.82Z"/><path class="cls-2" d="M38.75,73.7H27.88a.58.58,0,0,1-.58-.58V53A3.84,3.84,0,0,1,24,49.2V36.39a2.76,2.76,0,0,1,1.62-2.52,19.19,19.19,0,0,1,7.7-1.56A18.59,18.59,0,0,1,41,33.87a2.74,2.74,0,0,1,1.61,2.51v3.54h19v1.16H42a.58.58,0,0,1-.58-.58V36.38a1.58,1.58,0,0,0-.92-1.45,17.37,17.37,0,0,0-7.15-1.46,17.86,17.86,0,0,0-7.23,1.47,1.57,1.57,0,0,0-.93,1.45V49.2a2.68,2.68,0,0,0,2.68,2.68.58.58,0,0,1,.58.58V72.54h9.71V52.46a.58.58,0,0,1,.58-.58,2.68,2.68,0,0,0,2.68-2.68V48.11h1.16V49.2A3.84,3.84,0,0,1,39.33,53V73.12A.58.58,0,0,1,38.75,73.7Z"/><path class="cls-3" d="M69.2,73.7H58.32a.58.58,0,0,1-.58-.58V53a3.85,3.85,0,0,1-3.26-3.8V45.43h-19a.58.58,0,1,1,0-1.16H55.06a.58.58,0,0,1,.58.58V49.2a2.69,2.69,0,0,0,2.68,2.68.58.58,0,0,1,.58.58V72.54h9.72V52.46a.58.58,0,0,1,.58-.58,2.68,2.68,0,0,0,2.68-2.68V36.38A1.57,1.57,0,0,0,71,34.93a17.28,17.28,0,0,0-7.14-1.46,17.86,17.86,0,0,0-7.23,1.47,1.58,1.58,0,0,0-.94,1.45v.85a.58.58,0,0,1-1.16,0v-.85a2.76,2.76,0,0,1,1.63-2.52,19.15,19.15,0,0,1,7.7-1.56,18.59,18.59,0,0,1,7.62,1.56A2.74,2.74,0,0,1,73,36.38V49.2A3.85,3.85,0,0,1,69.78,53V73.12A.58.58,0,0,1,69.2,73.7Z"/><path class="cls-4" d="M37.66,48.69a.58.58,0,0,1-.41-.17L34,45.26a.59.59,0,0,1,0-.82l3.26-3.26a.58.58,0,0,1,.82.82l-2.85,2.85,2.85,2.85a.57.57,0,0,1,0,.82A.54.54,0,0,1,37.66,48.69Z"/></svg>