<svg viewBox="0 0 92 92" xmlns="http://www.w3.org/2000/svg"><circle cx="48.54" cy="43.83" fill="#fff" r="19.34"/><path d="m33.31 31.3c-2.85 0-4.92-2.53-4.92-6a4.93 4.93 0 1 1 9.85 0c0 3.47-2.07 6-4.93 6zm0-9.79a3.77 3.77 0 0 0 -3.76 3.77c0 2.81 1.58 4.86 3.76 4.86s3.77-2.05 3.77-4.86a3.77 3.77 0 0 0 -3.77-3.77z" fill="#2a285e"/><path d="m32.73 51.38h1.16v21.75h-1.16z" fill="#2a285e"/><path d="m63.76 31.3c-2.86 0-4.93-2.53-4.93-6a4.93 4.93 0 1 1 9.86 0c0 3.41-2.12 6-4.93 6zm0-9.79a3.77 3.77 0 0 0 -3.76 3.77c0 2.81 1.59 4.86 3.77 4.86s3.77-2.05 3.77-4.86a3.77 3.77 0 0 0 -3.78-3.77z" fill="#2b8fce"/><path d="m63.76 73.7a.58.58 0 0 1 -.58-.58v-21.74a.58.58 0 1 1 1.16 0v21.74a.58.58 0 0 1 -.58.58z" fill="#007fba"/><path d="m59.82 44.18-.82-.83 2.85-2.85-2.85-2.85.82-.82 3.26 3.26a.57.57 0 0 1 0 .82z" fill="#0f4876"/><path d="m38.75 73.7h-10.87a.58.58 0 0 1 -.58-.58v-20.12a3.84 3.84 0 0 1 -3.3-3.8v-12.81a2.76 2.76 0 0 1 1.62-2.52 19.19 19.19 0 0 1 7.7-1.56 18.59 18.59 0 0 1 7.68 1.56 2.74 2.74 0 0 1 1.61 2.51v3.54h19v1.16h-19.61a.58.58 0 0 1 -.58-.58v-4.12a1.58 1.58 0 0 0 -.92-1.45 17.37 17.37 0 0 0 -7.15-1.46 17.86 17.86 0 0 0 -7.23 1.47 1.57 1.57 0 0 0 -.93 1.45v12.81a2.68 2.68 0 0 0 2.68 2.68.58.58 0 0 1 .58.58v20.08h9.71v-20.08a.58.58 0 0 1 .58-.58 2.68 2.68 0 0 0 2.68-2.68v-1.09h1.16v1.09a3.84 3.84 0 0 1 -3.25 3.8v20.12a.58.58 0 0 1 -.58.58z" fill="#2a285e"/><path d="m69.2 73.7h-10.88a.58.58 0 0 1 -.58-.58v-20.12a3.85 3.85 0 0 1 -3.26-3.8v-3.77h-19a.58.58 0 1 1 0-1.16h19.58a.58.58 0 0 1 .58.58v4.35a2.69 2.69 0 0 0 2.68 2.68.58.58 0 0 1 .58.58v20.08h9.72v-20.08a.58.58 0 0 1 .58-.58 2.68 2.68 0 0 0 2.68-2.68v-12.82a1.57 1.57 0 0 0 -.88-1.45 17.28 17.28 0 0 0 -7.14-1.46 17.86 17.86 0 0 0 -7.23 1.47 1.58 1.58 0 0 0 -.94 1.45v.85a.58.58 0 0 1 -1.16 0v-.85a2.76 2.76 0 0 1 1.63-2.52 19.15 19.15 0 0 1 7.7-1.56 18.59 18.59 0 0 1 7.62 1.56 2.74 2.74 0 0 1 1.52 2.51v12.82a3.85 3.85 0 0 1 -3.22 3.8v20.12a.58.58 0 0 1 -.58.58z" fill="#2b8fce"/><path d="m37.66 48.69a.58.58 0 0 1 -.41-.17l-3.25-3.26a.59.59 0 0 1 0-.82l3.26-3.26a.58.58 0 0 1 .82.82l-2.85 2.85 2.85 2.85a.57.57 0 0 1 0 .82.54.54 0 0 1 -.42.17z" fill="#007fba"/></svg>