<svg id="Layer_1" data-name="Layer 1" xmlns="http://www.w3.org/2000/svg" viewBox="0 0 92 92"><defs><style>.cls-1{fill:#fff;}.cls-2{fill:#2b8fce;}.cls-3{fill:#2a285e;}</style></defs><circle class="cls-1" cx="46.24" cy="46.32" r="19.34"/><path class="cls-2" d="M50.83,73.05a.58.58,0,0,1-.49-.27l-2.54-4H44.67l-2.53,4a.58.58,0,0,1-.65.25L37,71.72a.56.56,0,0,1-.42-.54l-.08-4.93-2.7-1.57-4.31,2.39a.58.58,0,0,1-.69-.09l-3.25-3.26a.56.56,0,0,1-.1-.69l2.39-4.31L26.33,56l-4.93-.09a.57.57,0,0,1-.55-.41l-1.31-4.45a.57.57,0,0,1,.24-.66l4-2.53V44.76l-4-2.54a.56.56,0,0,1-.24-.65l1.3-4.45a.57.57,0,0,1,.55-.41l4.92-.09,1.57-2.69-2.39-4.31a.56.56,0,0,1,.1-.69l3.25-3.26a.61.61,0,0,1,.7-.1L33.85,28l2.69-1.56.08-4.93a.58.58,0,0,1,.42-.54l4.45-1.32a.58.58,0,0,1,.65.25l2.53,4H47.8l2.54-4a.58.58,0,0,1,.65-.25l4.45,1.3a.61.61,0,0,1,.42.55l.08,4.93L58.63,28l4.31-2.39a.57.57,0,0,1,.69.09l3.26,3.26a.59.59,0,0,1,.1.69L64.6,33.93l1.55,2.69,4.93.09a.59.59,0,0,1,.55.41l1.31,4.45a.59.59,0,0,1-.24.65l-4,2.54v3.13l4,2.53a.6.6,0,0,1,.24.66l-1.3,4.45a.58.58,0,0,1-.55.41L66.16,56,64.6,58.72,67,63a.59.59,0,0,1-.1.69L63.63,67a.57.57,0,0,1-.69.09l-4.31-2.39-2.69,1.56-.08,4.92a.59.59,0,0,1-.42.55L51,73ZM37.77,70.73l3.63,1.06,2.47-3.87a.57.57,0,0,1,.49-.27h3.76a.58.58,0,0,1,.49.27l2.47,3.87,3.62-1.07.09-4.83a.55.55,0,0,1,.29-.49l3.26-1.89a.58.58,0,0,1,.57,0l4.21,2.34,2.64-2.64L63.42,59a.56.56,0,0,1,0-.57l1.9-3.26a.55.55,0,0,1,.49-.29l4.82-.08,1.06-3.62L67.83,48.7a.59.59,0,0,1-.27-.49V44.44a.58.58,0,0,1,.27-.49l3.87-2.47-1.07-3.62-4.83-.08a.61.61,0,0,1-.49-.29l-1.88-3.26a.58.58,0,0,1,0-.57l2.34-4.22L63.12,26.8l-4.21,2.34a.57.57,0,0,1-.58,0l-3.26-1.89a.59.59,0,0,1-.28-.5l-.09-4.82-3.62-1.06-2.47,3.87a.58.58,0,0,1-.49.27H44.36a.57.57,0,0,1-.49-.27L41.4,20.86l-3.63,1.07-.08,4.83a.56.56,0,0,1-.29.49l-3.26,1.88a.55.55,0,0,1-.57,0L29.36,26.8l-2.64,2.64,2.34,4.22a.61.61,0,0,1,0,.57l-1.9,3.26a.61.61,0,0,1-.49.29l-4.83.08-1.06,3.62L24.65,44a.6.6,0,0,1,.27.49v3.77a.62.62,0,0,1-.27.49l-3.88,2.47,1.07,3.62,4.83.08a.58.58,0,0,1,.5.29l1.88,3.26a.58.58,0,0,1,0,.57l-2.33,4.22,2.63,2.64,4.22-2.34a.58.58,0,0,1,.57,0l3.26,1.9a.56.56,0,0,1,.29.49Z"/><path class="cls-3" d="M49.89,63.94a4.23,4.23,0,1,1,4.23-4.23A4.24,4.24,0,0,1,49.89,63.94Zm0-7.3A3.07,3.07,0,1,0,53,59.71,3.08,3.08,0,0,0,49.89,56.64Z"/><path class="cls-3" d="M53.54,39.6a4.23,4.23,0,1,1,4.23-4.23A4.24,4.24,0,0,1,53.54,39.6Zm0-7.3a3.07,3.07,0,1,0,3.07,3.07A3.08,3.08,0,0,0,53.54,32.3Z"/><path class="cls-3" d="M58.41,51.77a4.23,4.23,0,1,1,4.23-4.23A4.23,4.23,0,0,1,58.41,51.77Zm0-7.3a3.07,3.07,0,1,0,3.07,3.07A3.07,3.07,0,0,0,58.41,44.47Z"/><rect class="cls-3" x="27.99" y="46.96" width="26.77" height="1.16"/><path class="cls-3" d="M46.24,43.25h-7.3V42.09H46l4.7-4.69.82.82-4.87,4.86A.58.58,0,0,1,46.24,43.25Z"/><path class="cls-3" d="M41.37,38.39a4.24,4.24,0,1,1,4.23-4.23A4.24,4.24,0,0,1,41.37,38.39Zm0-7.31a3.08,3.08,0,1,0,3.07,3.08A3.08,3.08,0,0,0,41.37,31.08Z"/><path class="cls-3" d="M47.05,57.69,42.35,53H30.42V51.83H42.59A.58.58,0,0,1,43,52l4.87,4.87Z"/><path class="cls-3" d="M32.85,43.25H28V42.09h4.62l5.92-5.91.82.82-6.09,6.08A.57.57,0,0,1,32.85,43.25Z"/></svg>