<svg id="Layer_1" data-name="Layer 1" xmlns="http://www.w3.org/2000/svg" viewBox="0 0 92 92"><defs><style>.cls-1{fill:#fff;}.cls-2{fill:#2a285e;}.cls-3{fill:#2b8fce;}</style></defs><circle class="cls-1" cx="48.54" cy="43.83" r="19.34"/><rect class="cls-2" x="47.96" y="61.1" width="1.16" height="13.87"/><path class="cls-2" d="M54.46,75H53.3V62.17a.58.58,0,0,1,.58-.58A2.62,2.62,0,0,0,56.5,59V46.38A1.54,1.54,0,0,0,55.6,45a17.13,17.13,0,0,0-7-1.43A17.46,17.46,0,0,0,41.5,45a1.54,1.54,0,0,0-.91,1.42V59a2.62,2.62,0,0,0,2.62,2.62.58.58,0,0,1,.58.58V75H42.63V62.71A3.79,3.79,0,0,1,39.43,59V46.4A2.71,2.71,0,0,1,41,43.92a18.76,18.76,0,0,1,7.56-1.54,18.22,18.22,0,0,1,7.48,1.53,2.71,2.71,0,0,1,1.59,2.47V59a3.79,3.79,0,0,1-3.2,3.74Z"/><path class="cls-2" d="M48.54,41.41c-2.8,0-4.84-2.49-4.84-5.92a4.85,4.85,0,1,1,9.69,0C53.39,38.92,51.35,41.41,48.54,41.41Zm0-9.61a3.69,3.69,0,0,0-3.68,3.69c0,2.76,1.55,4.76,3.68,4.76s3.69-2,3.69-4.76A3.69,3.69,0,0,0,48.54,31.8Z"/><rect class="cls-3" x="69.31" y="61.1" width="1.16" height="13.87"/><path class="cls-2" d="M75.8,75H74.64V62.17a.58.58,0,0,1,.58-.58A2.62,2.62,0,0,0,77.84,59V46.38a1.54,1.54,0,0,0-.9-1.41,17.13,17.13,0,0,0-7-1.43A17.54,17.54,0,0,0,62.84,45a1.54,1.54,0,0,0-.91,1.42V59a2.63,2.63,0,0,0,2.62,2.62.58.58,0,0,1,.58.58V75H64V62.71A3.79,3.79,0,0,1,60.77,59V46.4a2.7,2.7,0,0,1,1.61-2.48,18.66,18.66,0,0,1,7.55-1.54,18.28,18.28,0,0,1,7.49,1.53A2.72,2.72,0,0,1,79,46.38V59a3.79,3.79,0,0,1-3.2,3.74Z"/><path class="cls-2" d="M69.89,41.41c-2.81,0-4.85-2.49-4.85-5.92a4.85,4.85,0,1,1,9.7,0C74.74,38.92,72.7,41.41,69.89,41.41Zm0-9.61a3.69,3.69,0,0,0-3.69,3.69c0,2.76,1.55,4.76,3.69,4.76s3.69-2,3.69-4.76A3.7,3.7,0,0,0,69.89,31.8Z"/><rect class="cls-3" x="26.62" y="61.1" width="1.16" height="13.87"/><path class="cls-2" d="M33.12,75H32V62.17a.58.58,0,0,1,.58-.58A2.63,2.63,0,0,0,35.16,59V46.38A1.55,1.55,0,0,0,34.25,45a17,17,0,0,0-7-1.43A17.46,17.46,0,0,0,20.16,45a1.53,1.53,0,0,0-.91,1.42V59a2.62,2.62,0,0,0,2.62,2.62.58.58,0,0,1,.58.58V75H21.29V62.71A3.8,3.8,0,0,1,18.08,59V46.4a2.7,2.7,0,0,1,1.61-2.48,18.72,18.72,0,0,1,7.56-1.54,18.22,18.22,0,0,1,7.48,1.53,2.71,2.71,0,0,1,1.59,2.47V59a3.79,3.79,0,0,1-3.2,3.74Z"/><path class="cls-2" d="M27.2,41.41c-2.81,0-4.85-2.49-4.85-5.92a4.85,4.85,0,1,1,9.7,0C32.05,38.92,30,41.41,27.2,41.41Zm0-9.61a3.7,3.7,0,0,0-3.69,3.69c0,2.76,1.55,4.76,3.69,4.76s3.69-2,3.69-4.76A3.69,3.69,0,0,0,27.2,31.8Z"/><path class="cls-3" d="M37.87,32.87C35.11,32.87,33,30.33,33,27a4.85,4.85,0,0,1,9.69,0C42.72,30.38,40.68,32.87,37.87,32.87Zm0-9.6A3.68,3.68,0,0,0,34.19,27c0,2.76,1.55,4.76,3.68,4.76s3.69-2,3.69-4.76A3.69,3.69,0,0,0,37.87,23.27Z"/><path class="cls-3" d="M59.22,32.87c-2.81,0-4.85-2.49-4.85-5.92a4.85,4.85,0,0,1,9.69,0C64.06,30.38,62,32.87,59.22,32.87Zm0-9.6A3.69,3.69,0,0,0,55.53,27c0,2.76,1.55,4.76,3.69,4.76s3.68-2,3.68-4.76A3.68,3.68,0,0,0,59.22,23.27Z"/></svg>