<svg id="Layer_1" data-name="Layer 1" xmlns="http://www.w3.org/2000/svg" viewBox="0 0 92 92"><defs><style>.cls-1{fill:#fff;}.cls-2{fill:#2a285e;}.cls-3{fill:#2b8fce;}</style></defs><circle class="cls-1" cx="46.27" cy="43.83" r="19.34"/><path class="cls-2" d="M30.2,49.06A5.3,5.3,0,0,1,25,43.56V41.92a5.18,5.18,0,1,1,10.35,0v1.64A5.29,5.29,0,0,1,30.2,49.06Zm0-11.48a4.14,4.14,0,0,0-4,4.34v1.64a4,4,0,1,0,8,0V41.92A4.14,4.14,0,0,0,30.2,37.58Z"/><path class="cls-2" d="M31.34,69.72H26.75c-4.74,0-7.46-2.3-7.46-6.32V58.81c0-5,2.51-7.47,7.46-7.47h5.74c2.55.1,5.58,1.53,7.16,2.37l-.54,1c-1.2-.64-4.26-2.13-6.64-2.23H26.75c-4.3,0-6.3,2-6.3,6.31V63.4c0,4.49,3.95,5.16,6.3,5.16h4.59Z"/><path class="cls-2" d="M33.64,64H26.75A1.73,1.73,0,0,1,25,62.25V57.66h1.17v4.59a.56.56,0,0,0,.56.57h6.89Z"/><rect class="cls-2" x="23.88" y="69.14" width="1.16" height="5.74"/><rect class="cls-2" x="36.5" y="71.44" width="1.16" height="3.44"/><path class="cls-2" d="M44.85,67.42H40.53a.6.6,0,0,1-.5-.27.61.61,0,0,1,0-.57L42.3,62a.6.6,0,0,1,.52-.32H46.7a1.73,1.73,0,0,1,1.55,2.5l-.83,1.66A2.86,2.86,0,0,1,44.85,67.42Zm-3.38-1.16h3.38a1.7,1.7,0,0,0,1.53-.94l.83-1.67a.55.55,0,0,0,0-.55.57.57,0,0,0-.49-.27H43.18Z"/><rect class="cls-2" x="32.49" y="56.04" width="1.16" height="6.69" transform="translate(-34.87 57.19) rotate(-59.04)"/><path class="cls-2" d="M41.67,72H30.2a.61.61,0,0,1-.5-.28.59.59,0,0,1,0-.56L36.56,57.4a.6.6,0,0,1,.52-.32H48.56a.61.61,0,0,1,.5.28.59.59,0,0,1,0,.56l-2.29,4.59-1-.52,1.87-3.75H37.44L31.13,70.86H41.32l2.13-4.28,1,.52-2.3,4.59A.57.57,0,0,1,41.67,72Z"/><path class="cls-3" d="M47.43,53.65a1.77,1.77,0,0,1-.56-.09,1.7,1.7,0,0,1-1.18-1.64V46.76H44a4,4,0,0,1-4-4V24.37a4,4,0,0,1,4-4H69.22a4,4,0,0,1,4,4V41.59a5.18,5.18,0,0,1-5.18,5.17H53.44L48.8,53A1.7,1.7,0,0,1,47.43,53.65ZM44,21.51a2.87,2.87,0,0,0-2.86,2.86V42.74A2.86,2.86,0,0,0,44,45.6h2.3a.58.58,0,0,1,.58.58v5.74a.56.56,0,0,0,1,.34l4.82-6.43a.59.59,0,0,1,.46-.23H68.07a4,4,0,0,0,4-4V24.37a2.87,2.87,0,0,0-2.87-2.86Z"/><path class="cls-2" d="M62.92,41.59H61.76V38.15c0-1.77-2.68-2.86-5.16-2.86s-5.16,1.09-5.16,2.86v3.44H50.28V38.15c0-2.61,3.25-4,6.32-4s6.32,1.42,6.32,4Z"/><path class="cls-2" d="M56.6,35.29a3.94,3.94,0,0,1-4-4V30.11a4,4,0,0,1,8,0v1.15A3.94,3.94,0,0,1,56.6,35.29Zm0-8a2.77,2.77,0,0,0-2.87,2.86v1.15a2.87,2.87,0,0,0,5.73,0V30.11A2.76,2.76,0,0,0,56.6,27.25Z"/></svg>