<svg id="Layer_1" data-name="Layer 1" xmlns="http://www.w3.org/2000/svg" viewBox="0 0 92 92"><defs><style>.cls-1{fill:#fff;}.cls-2{fill:#2b8fce;}.cls-3{fill:#2a285e;}</style></defs><circle class="cls-1" cx="45.98" cy="46.32" r="19.34"/><rect class="cls-2" x="14.09" y="60.07" width="63.8" height="1.16"/><rect class="cls-2" x="14.09" y="31.42" width="63.8" height="1.16"/><rect class="cls-3" x="69.99" y="29.56" width="1.16" height="33.53"/><rect class="cls-3" x="62.27" y="29.56" width="1.16" height="33.53"/><path class="cls-3" d="M70.57,67.73H62.85a.58.58,0,0,1-.58-.58V63.09h1.16v3.48H70V63.09h1.16v4.06A.58.58,0,0,1,70.57,67.73Z"/><path class="cls-3" d="M71.15,29.56H70V26.08H63.43v3.48H62.27V25.5a.58.58,0,0,1,.58-.58h7.72a.58.58,0,0,1,.58.58Z"/><rect class="cls-3" x="55.74" y="29.56" width="1.16" height="33.53"/><rect class="cls-3" x="48.02" y="29.56" width="1.16" height="33.53"/><path class="cls-3" d="M56.32,67.73H48.6a.58.58,0,0,1-.58-.58V63.09h1.16v3.48h6.56V63.09H56.9v4.06A.58.58,0,0,1,56.32,67.73Z"/><path class="cls-3" d="M56.9,29.56H55.74V26.08H49.18v3.48H48V25.5a.58.58,0,0,1,.58-.58h7.72a.58.58,0,0,1,.58.58Z"/><rect class="cls-3" x="41.49" y="29.56" width="1.16" height="33.53"/><rect class="cls-3" x="33.77" y="29.56" width="1.16" height="33.53"/><path class="cls-3" d="M42.07,67.73H34.35a.57.57,0,0,1-.58-.58V63.09h1.16v3.48h6.56V63.09h1.16v4.06A.58.58,0,0,1,42.07,67.73Z"/><path class="cls-3" d="M42.65,29.56H41.49V26.08H34.93v3.48H33.77V25.5a.57.57,0,0,1,.58-.58h7.72a.58.58,0,0,1,.58.58Z"/><rect class="cls-3" x="27.23" y="29.56" width="1.16" height="33.53"/><rect class="cls-3" x="19.51" y="29.56" width="1.16" height="33.53"/><path class="cls-3" d="M27.81,67.73H20.09a.58.58,0,0,1-.58-.58V63.09h1.16v3.48h6.56V63.09H28.4v4.06A.58.58,0,0,1,27.81,67.73Z"/><path class="cls-3" d="M28.4,29.56H27.23V26.08H20.67v3.48H19.51V25.5a.58.58,0,0,1,.58-.58h7.72a.58.58,0,0,1,.59.58Z"/></svg>