<svg id="Layer_1" data-name="Layer 1" xmlns="http://www.w3.org/2000/svg" viewBox="0 0 92 92"><defs><style>.cls-1{fill:#fff;}.cls-2{fill:#2a285e;}.cls-3{fill:#2b8fce;}</style></defs><circle class="cls-1" cx="46" cy="43.38" r="19.34"/><path class="cls-2" d="M46.66,53a.59.59,0,0,1-.35-.12l-12-9.19a.62.62,0,0,1-.22-.39.6.6,0,0,1,.11-.43l4.09-5.34a.57.57,0,0,1,.38-.22.59.59,0,0,1,.43.11l6.21,4.76,15-19.56a.6.6,0,0,1,.39-.22.61.61,0,0,1,.43.11l5.33,4.09a.57.57,0,0,1,.11.81L47.12,52.72A.56.56,0,0,1,46.66,53ZM35.47,43.07l11.09,8.48,18.7-24.43-4.42-3.38-15,19.56a.57.57,0,0,1-.38.22.55.55,0,0,1-.43-.12l-6.21-4.75Z"/><rect class="cls-3" x="45.42" y="17.24" width="1.16" height="10.7"/><rect class="cls-3" x="19.85" y="42.8" width="10.7" height="1.16"/><rect class="cls-3" x="61.45" y="42.8" width="10.7" height="1.16"/><rect class="cls-3" x="45.42" y="58.83" width="1.16" height="10.7"/><path class="cls-3" d="M46,63a19.6,19.6,0,0,1,0-39.19,19.33,19.33,0,0,1,7.38,1.44l-.44,1.07A18.41,18.41,0,1,0,63.58,37.83l1.11-.35A19.63,19.63,0,0,1,46,63Z"/></svg>