<svg id="Layer_1" data-name="Layer 1" xmlns="http://www.w3.org/2000/svg" viewBox="0 0 92 92"><defs><style>.cls-1{fill:#f7ad40;}.cls-2{fill:#007fba;}.cls-3{fill:#2b8fce;}.cls-4{fill:#2a285e;}</style></defs><circle class="cls-1" cx="41" cy="46.32" r="19.34"/><path class="cls-2" d="M64.34,46.74h0a.59.59,0,0,1-.47-.25L55.78,34.71A10.08,10.08,0,0,1,54,28.94a10.37,10.37,0,0,1,20.73,0,10.13,10.13,0,0,1-1.8,5.78L64.82,46.49A.59.59,0,0,1,64.34,46.74Zm0-26.91a9.17,9.17,0,0,0-9.2,9.11,9,9,0,0,0,1.59,5.12l7.61,11.07L72,34.06a9,9,0,0,0,1.59-5.12A9.17,9.17,0,0,0,64.34,19.83Z"/><path class="cls-2" d="M64.34,34.51A5.48,5.48,0,1,1,69.82,29,5.48,5.48,0,0,1,64.34,34.51Zm0-9.79A4.32,4.32,0,1,0,68.66,29,4.33,4.33,0,0,0,64.34,24.72Z"/><path class="cls-3" d="M64.34,46.74h0a.59.59,0,0,1-.47-.25L55.78,34.71A10.08,10.08,0,0,1,54,28.94a10.37,10.37,0,0,1,20.73,0,10.13,10.13,0,0,1-1.8,5.78L64.82,46.49A.59.59,0,0,1,64.34,46.74Zm0-26.91a9.17,9.17,0,0,0-9.2,9.11,9,9,0,0,0,1.59,5.12l7.61,11.07L72,34.06a9,9,0,0,0,1.59-5.12A9.17,9.17,0,0,0,64.34,19.83Z"/><path class="cls-3" d="M64.34,34.51A5.48,5.48,0,1,1,69.82,29,5.48,5.48,0,0,1,64.34,34.51Zm0-9.79A4.32,4.32,0,1,0,68.66,29,4.33,4.33,0,0,0,64.34,24.72Z"/><path class="cls-4" d="M56.41,63.71a22.62,22.62,0,0,0-30.6,0L25,62.85a23.8,23.8,0,0,1,32.17,0Z"/><path class="cls-4" d="M41.11,70c-6.5,0-11.59-10.47-11.59-23.82s5.09-23.82,11.59-23.82S52.7,32.8,52.7,46.16,47.61,70,41.11,70Zm0-46.48c-5.75,0-10.43,10.16-10.43,22.66s4.68,22.66,10.43,22.66S51.53,58.65,51.53,46.16,46.86,23.5,41.11,23.5Z"/><rect class="cls-4" x="17.87" y="45.58" width="41.58" height="1.16"/><path class="cls-4" d="M41.11,70a23.82,23.82,0,0,1,0-47.64,23.49,23.49,0,0,1,10.54,2.47l-.51,1a22.6,22.6,0,0,0-25.33,3.61A22.65,22.65,0,1,0,63.12,51.54l1.13.27A23.74,23.74,0,0,1,41.11,70Z"/><path class="cls-4" d="M41.11,35.73A23.75,23.75,0,0,1,25,29.46l.79-.85A22.63,22.63,0,0,0,50,32.74l.46,1.06A23.54,23.54,0,0,1,41.11,35.73Z"/></svg>