<svg id="Layer_1" data-name="Layer 1" xmlns="http://www.w3.org/2000/svg" viewBox="0 0 92 92.1"><defs><style>.cls-1{fill:#fff;}.cls-2{fill:#2a285e;}.cls-3{fill:#2b8fce;}</style></defs><circle class="cls-1" cx="45.98" cy="44.71" r="19.34"/><path class="cls-2" d="M46,58a.56.56,0,0,1-.42-.18L35.85,47.53a7.14,7.14,0,0,1-2.08-5.06A7.19,7.19,0,0,1,46,37.28a7.19,7.19,0,0,1,12.21,5.19A7.11,7.11,0,0,1,56.57,47L46.4,57.82A.56.56,0,0,1,46,58ZM41,36.4a6.07,6.07,0,0,0-4.31,10.33L46,56.58l9.71-10.36A5.92,5.92,0,0,0,57,42.47a6,6,0,0,0-10.61-4,.61.61,0,0,1-.88,0A6.06,6.06,0,0,0,41,36.4Z"/><path class="cls-3" d="M47.12,74.93a.52.52,0,0,1-.24-.05.57.57,0,0,1-.34-.53V68.09l-.56,0A23.32,23.32,0,1,1,69.29,44.8h0a23.17,23.17,0,0,1-8.1,17.65l-.07.07L47.5,74.78A.54.54,0,0,1,47.12,74.93Zm0-8a.59.59,0,0,1,.39.16.57.57,0,0,1,.19.42v5.58L60.23,61.76l.09-.1A22,22,0,0,0,68.13,44.8h0A22.16,22.16,0,1,0,46,67c.37,0,1.09,0,1.09,0Z"/></svg>