<svg id="Layer_1" data-name="Layer 1" xmlns="http://www.w3.org/2000/svg" viewBox="0 0 92 92"><defs><style>.cls-1{fill:#fff;}.cls-2{fill:#2a285e;}.cls-3{fill:#2b8fce;}</style></defs><circle class="cls-1" cx="45.9" cy="46.32" r="19.34"/><path class="cls-2" d="M52.15,64.3H51V62.09a7.8,7.8,0,0,1,2.31-5.66c2.36-2.34,3.37-4.51,3.37-7.27a10.77,10.77,0,0,0-21.54,0c0,2.76,1,4.93,3.36,7.27a7.8,7.8,0,0,1,2.31,5.66V64.3H39.64V62.09a6.65,6.65,0,0,0-2-4.83c-2.57-2.55-3.71-5-3.71-8.1a11.93,11.93,0,1,1,23.86,0c0,3.06-1.15,5.55-3.71,8.1a6.62,6.62,0,0,0-2,4.83Z"/><path class="cls-2" d="M49.68,72.44H42.11a.58.58,0,0,1-.41-.17l-1.89-1.89a.57.57,0,0,1-.17-.41V64.3a.58.58,0,0,1,.58-.58H51.57a.58.58,0,0,1,.58.58V70a.57.57,0,0,1-.17.41l-1.89,1.89A.57.57,0,0,1,49.68,72.44Zm-7.33-1.16h7.09L51,69.73V64.88H40.8v4.85Z"/><rect class="cls-3" x="45.32" y="20.78" width="1.16" height="11.35"/><rect class="cls-3" x="33.97" y="23.83" width="1.16" height="11.35" transform="matrix(0.87, -0.5, 0.5, 0.87, -10.12, 21.23)"/><rect class="cls-3" x="25.66" y="32.13" width="1.16" height="11.35" transform="matrix(0.5, -0.87, 0.87, 0.5, -19.63, 41.63)"/><rect class="cls-3" x="17.52" y="48.58" width="11.35" height="1.16"/><rect class="cls-3" x="51.57" y="28.92" width="11.35" height="1.16" transform="translate(3.06 64.31) rotate(-59.98)"/><rect class="cls-3" x="59.88" y="37.23" width="11.35" height="1.16" transform="translate(-10.12 37.87) rotate(-30.02)"/><rect class="cls-3" x="62.92" y="48.58" width="11.35" height="1.16"/></svg>