<svg id="Layer_1" data-name="Layer 1" xmlns="http://www.w3.org/2000/svg" viewBox="0 0 92 92"><defs><style>.cls-1{fill:#fff;}.cls-2{fill:#2b8fce;}.cls-3{fill:#2a285e;}</style></defs><circle class="cls-1" cx="45.86" cy="43.83" r="19.34"/><path class="cls-2" d="M53.84,74.72h-16a.58.58,0,0,1-.58-.58V59.5a.58.58,0,0,1,.58-.58h12a.58.58,0,0,1,0,1.16H38.46V73.56h14.8V67.49a.58.58,0,1,1,1.16,0v6.65A.58.58,0,0,1,53.84,74.72Z"/><path class="cls-3" d="M45.86,70.73a.58.58,0,0,1-.41-.17l-4-4,.82-.82,3.55,3.55,8.9-10.18.88.77L46.3,70.53a.62.62,0,0,1-.42.2Z"/><path class="cls-2" d="M76.45,74.72h-16a.58.58,0,0,1-.58-.58V59.5a.58.58,0,0,1,.58-.58h16a.58.58,0,0,1,.58.58V74.14A.58.58,0,0,1,76.45,74.72ZM61.07,73.56h14.8V60.08H61.07Z"/><path class="cls-2" d="M31.23,74.72h-16a.58.58,0,0,1-.58-.58V59.5a.58.58,0,0,1,.58-.58h12a.58.58,0,1,1,0,1.16H15.85V73.56h14.8V67.49a.58.58,0,0,1,1.16,0v6.65A.58.58,0,0,1,31.23,74.72Z"/><path class="cls-3" d="M23.25,70.73a.57.57,0,0,1-.41-.17l-4-4,.82-.82,3.55,3.55,8.9-10.18.87.77L23.68,70.53a.58.58,0,0,1-.41.2Z"/><path class="cls-3" d="M29.9,34.81A6,6,0,0,1,24,28.53v-1.9a5.91,5.91,0,1,1,11.8,0v1.9A6,6,0,0,1,29.9,34.81Zm0-13.3a4.83,4.83,0,0,0-4.74,5.12v1.9a4.75,4.75,0,1,0,9.48,0v-1.9A4.83,4.83,0,0,0,29.9,21.51Z"/><path class="cls-3" d="M41.84,54.76h-8a.59.59,0,0,1-.45-.2l-6.65-8,.89-.74,6.48,7.77h7.68a3.14,3.14,0,0,0,2.45-1,5,5,0,0,0,1-3.21H37.85a.59.59,0,0,1-.43-.19L28.3,38.8H25.91c-2.55,0-4.32,1.8-4.75,4.82-.45,3.2-1.32,10.56-1.33,10.63l-1.15-.13c0-.08.88-7.45,1.33-10.66.51-3.59,2.77-5.82,5.9-5.82h2.66a.55.55,0,0,1,.43.2l9.12,10.44h7.71a.58.58,0,0,1,.58.52,6.61,6.61,0,0,1-1.25,4.62A4.24,4.24,0,0,1,41.84,54.76Z"/><path class="cls-3" d="M53.84,50.77H48.52V49.61h5L60.8,37.47h-16L39.69,45.2l-1-.65,5.32-8a.58.58,0,0,1,.48-.26H61.82a.58.58,0,0,1,.51.3.57.57,0,0,1,0,.58l-8,13.3A.58.58,0,0,1,53.84,50.77Z"/><rect class="cls-3" x="28.57" y="53.6" width="45.23" height="1.16"/></svg>