<svg viewBox="0 0 92 92.1" xmlns="http://www.w3.org/2000/svg"><circle cx="46" cy="45.68" fill="#f7ad40" r="19.34"/><path d="m55.71 48.34a6.13 6.13 0 1 1 6.12-6.13 6.14 6.14 0 0 1 -6.12 6.13zm0-11.1a5 5 0 1 0 5 5 5 5 0 0 0 -5-5z" fill="#2a285e"/><path d="m69.12 60.76a.54.54 0 0 1 -.38-.14l-4.56-3.89.75-.88 4.15 3.54 3.81-3.8-3.55-4.16a.59.59 0 0 1 0-.68 15.93 15.93 0 0 0 2.07-5 .56.56 0 0 1 .52-.45l5.44-.43v-5.35l-5.44-.43a.56.56 0 0 1 -.52-.45 15.93 15.93 0 0 0 -2.07-5 .6.6 0 0 1 0-.69l3.55-4.15-3.81-3.8-4.15 3.55a.57.57 0 0 1 -.68.05 15.91 15.91 0 0 0 -5-2.06.58.58 0 0 1 -.45-.52l-.4-5.42h-5.4l-.41 5.4a.6.6 0 0 1 -.45.52 15.91 15.91 0 0 0 -5 2.06.57.57 0 0 1 -.69-.05l-4.12-3.53-3.81 3.81 3.55 4.19a.6.6 0 0 1 0 .69 15.91 15.91 0 0 0 -2.06 5 .58.58 0 0 1 -.52.45l-2.86.22-.09-1.15 2.46-.21a17.11 17.11 0 0 1 1.89-4.55l-3.62-4.24a.58.58 0 0 1 0-.79l4.57-4.56a.57.57 0 0 1 .78 0l4.24 3.62a17.36 17.36 0 0 1 4.55-1.88l.49-5.6a.58.58 0 0 1 .58-.53h6.45a.57.57 0 0 1 .58.53l.49 5.53a17.08 17.08 0 0 1 4.55 1.88l4.24-3.62a.59.59 0 0 1 .79 0l4.56 4.56a.58.58 0 0 1 0 .79l-3.64 4.28a17.18 17.18 0 0 1 1.89 4.58l5.55.44a.59.59 0 0 1 .54.58v6.46a.57.57 0 0 1 -.54.57l-5.55.44a17.11 17.11 0 0 1 -1.89 4.51l3.62 4.24a.58.58 0 0 1 0 .79l-4.56 4.56a.62.62 0 0 1 -.44.17z" fill="#2a285e"/><path d="m26.58 51.11a6.2 6.2 0 0 1 -6.13-6.52v-2a6.14 6.14 0 1 1 12.26 0v2a6.2 6.2 0 0 1 -6.13 6.52zm0-13.87a5.07 5.07 0 0 0 -5 5.36v2a5 5 0 1 0 9.94 0v-2a5.07 5.07 0 0 0 -4.94-5.36z" fill="#2b8fce"/><path d="m37.65 71.91h-8.3a.55.55 0 0 1 -.44-.21l-6.91-8.32.9-.74 6.76 8.11h8a3.26 3.26 0 0 0 2.57-1 5.22 5.22 0 0 0 1-3.38h-7.74a.61.61 0 0 1 -.44-.2l-9.51-10.9h-2.54c-2.67 0-4.53 1.89-5 5-.47 3.34-1.38 11-1.39 11.08l-1.15-.13c0-.08.92-7.76 1.39-11.11.53-3.73 2.87-6 6.12-6h2.78a.57.57 0 0 1 .43.2l9.51 10.9h8.06a.58.58 0 0 1 .58.51c0 .12.31 3-1.3 4.8a4.38 4.38 0 0 1 -3.38 1.39z" fill="#2b8fce"/><path d="m51.55 67.75h-6.94v-1.16h6.61l7.62-12.71h-18.08l-5.38 8.12-1-.65 5.62-8.35a.59.59 0 0 1 .48-.26h19.39a.58.58 0 0 1 .49.88l-8.36 13.85a.55.55 0 0 1 -.45.28z" fill="#2a285e"/><path d="m22.42 70.75h40.22v1.16h-40.22z" fill="#2b8fce"/></svg>