<svg id="Layer_1" data-name="Layer 1" xmlns="http://www.w3.org/2000/svg" viewBox="0 0 92 92.1"><defs><style>.cls-1{fill:#fff;}.cls-2{fill:#2a285e;}.cls-3{fill:#2b8fce;}</style></defs><circle class="cls-1" cx="46" cy="45.68" r="19.34"/><path class="cls-2" d="M55.71,48.34a6.13,6.13,0,1,1,6.12-6.13A6.14,6.14,0,0,1,55.71,48.34Zm0-11.1a5,5,0,1,0,5,5A5,5,0,0,0,55.71,37.24Z"/><path class="cls-2" d="M69.12,60.76a.54.54,0,0,1-.38-.14l-4.56-3.89.75-.88,4.15,3.54,3.81-3.8-3.55-4.16a.59.59,0,0,1,0-.68,15.93,15.93,0,0,0,2.07-5,.56.56,0,0,1,.52-.45l5.44-.43V39.52l-5.44-.43a.56.56,0,0,1-.52-.45,15.93,15.93,0,0,0-2.07-5,.6.6,0,0,1,0-.69l3.55-4.15L69.08,25l-4.15,3.55a.57.57,0,0,1-.68.05,15.91,15.91,0,0,0-5-2.06.58.58,0,0,1-.45-.52L58.4,20.6H53L52.59,26a.6.6,0,0,1-.45.52,15.91,15.91,0,0,0-5,2.06.57.57,0,0,1-.69-.05L42.33,25l-3.81,3.81L42.07,33a.6.6,0,0,1,0,.69,15.91,15.91,0,0,0-2.06,5,.58.58,0,0,1-.52.45l-2.86.22-.09-1.15L39,38a17.11,17.11,0,0,1,1.89-4.55l-3.62-4.24a.58.58,0,0,1,0-.79l4.57-4.56a.57.57,0,0,1,.78,0l4.24,3.62a17.36,17.36,0,0,1,4.55-1.88L51.9,20a.58.58,0,0,1,.58-.53h6.45a.57.57,0,0,1,.58.53L60,25.53a17.08,17.08,0,0,1,4.55,1.88l4.24-3.62a.59.59,0,0,1,.79,0l4.56,4.56a.58.58,0,0,1,0,.79L70.5,33.42A17.18,17.18,0,0,1,72.39,38l5.55.44a.59.59,0,0,1,.54.58v6.46a.57.57,0,0,1-.54.57l-5.55.44A17.11,17.11,0,0,1,70.5,51l3.62,4.24a.58.58,0,0,1,0,.79l-4.56,4.56A.62.62,0,0,1,69.12,60.76Z"/><path class="cls-3" d="M26.58,51.11a6.2,6.2,0,0,1-6.13-6.52v-2a6.14,6.14,0,1,1,12.26,0v2A6.2,6.2,0,0,1,26.58,51.11Zm0-13.87a5.07,5.07,0,0,0-5,5.36v2a5,5,0,1,0,9.94,0v-2A5.07,5.07,0,0,0,26.58,37.24Z"/><path class="cls-3" d="M37.65,71.91h-8.3a.55.55,0,0,1-.44-.21L22,63.38l.9-.74,6.76,8.11h8a3.26,3.26,0,0,0,2.57-1,5.22,5.22,0,0,0,1-3.38H33.49a.61.61,0,0,1-.44-.2l-9.51-10.9H21c-2.67,0-4.53,1.89-5,5-.47,3.34-1.38,11-1.39,11.08l-1.15-.13c0-.08.92-7.76,1.39-11.11.53-3.73,2.87-6,6.12-6h2.78a.57.57,0,0,1,.43.2l9.51,10.9h8.06a.58.58,0,0,1,.58.51c0,.12.31,3-1.3,4.8A4.38,4.38,0,0,1,37.65,71.91Z"/><path class="cls-2" d="M51.55,67.75H44.61V66.59h6.61l7.62-12.71H40.76L35.38,62l-1-.65L40,53a.59.59,0,0,1,.48-.26H59.87a.58.58,0,0,1,.49.88L52,67.47A.55.55,0,0,1,51.55,67.75Z"/><rect class="cls-3" x="22.42" y="70.75" width="40.22" height="1.16"/></svg>