<svg id="Layer_1" data-name="Layer 1" xmlns="http://www.w3.org/2000/svg" viewBox="0 0 92 92.1"><defs><style>.cls-1{fill:#f7ad40;}.cls-2{fill:#2a285e;}.cls-3{fill:#2b8fce;}</style></defs><circle class="cls-1" cx="45.92" cy="45.6" r="19.34"/><path class="cls-2" d="M45.92,48.67a5.69,5.69,0,0,1-5.57-5.92V41a5.58,5.58,0,1,1,11.13,0v1.78A5.69,5.69,0,0,1,45.92,48.67Zm0-12.45A4.54,4.54,0,0,0,41.51,41v1.78a4.42,4.42,0,1,0,8.81,0V41A4.54,4.54,0,0,0,45.92,36.22Z"/><path class="cls-2" d="M56.46,55.56H55.3V53c0-2.89-6.11-4.4-9.38-4.4s-9.39,1.51-9.39,4.4v2.54H35.37V53c0-3.88,7-5.56,10.55-5.56S56.46,49.14,56.46,53Z"/><path class="cls-2" d="M24.74,56.14a.59.59,0,0,1-.47-.24L18,47.18a.58.58,0,0,1,.48-.91h1.91V45.6A25.52,25.52,0,0,1,45.92,20.11v1.16A24.36,24.36,0,0,0,21.59,45.6v1.25a.58.58,0,0,1-.58.58H19.64l5.05,7.06,4-7.06h-1.5a.58.58,0,0,1-.58-.58V45.6A19.26,19.26,0,0,1,62.21,35.33l-1,.62A18.1,18.1,0,0,0,27.81,45.6v.67h1.92a.61.61,0,0,1,.5.28.6.6,0,0,1,0,.58l-5,8.72a.59.59,0,0,1-.48.29Z"/><path class="cls-2" d="M60.61,26.21a23.41,23.41,0,0,0-2.43-1.63l.58-1a25.77,25.77,0,0,1,2.55,1.71Z"/><path class="cls-2" d="M55.67,23.31a24.22,24.22,0,0,0-2.33-.88l.36-1.11c.82.27,1.64.58,2.44.92Z"/><path class="cls-2" d="M50.67,21.74a21.8,21.8,0,0,0-2.27-.34l.12-1.16c.79.08,1.59.2,2.38.36Z"/><path class="cls-3" d="M46,71.09V69.93A24.3,24.3,0,0,0,70.24,45.6V44.36a.57.57,0,0,1,.58-.58h1.37l-5-7.07-4,7.07H64.6a.57.57,0,0,1,.58.58V45.6A19.12,19.12,0,0,1,29.84,55.87l1-.62A18,18,0,0,0,64,45.6v-.66H62.11a.62.62,0,0,1-.51-.29.6.6,0,0,1,0-.58l5-8.72a.59.59,0,0,1,.48-.29.56.56,0,0,1,.5.24L73.79,44a.59.59,0,0,1,0,.6.6.6,0,0,1-.52.32H71.4v.66A25.46,25.46,0,0,1,46,71.09Z"/><path class="cls-3" d="M33.17,67.62a25.77,25.77,0,0,1-2.55-1.71l.7-.92a24.66,24.66,0,0,0,2.44,1.63Z"/><path class="cls-3" d="M38.24,69.88A24.85,24.85,0,0,1,35.8,69l.46-1.06c.77.33,1.55.62,2.33.88Z"/><path class="cls-3" d="M43.41,71A23.78,23.78,0,0,1,41,70.6l.22-1.14a21.8,21.8,0,0,0,2.27.34Z"/></svg>